<svg width="46" height="38" viewBox="0 0 46 38" fill="none" xmlns="http://www.w3.org/2000/svg">
<path d="M45.1825 4.86771C44.5865 4.16316 43.7518 3.73281 42.8321 3.65599L10.4385 0.951166C9.51864 0.87435 8.62434 1.16032 7.9197 1.75625C7.21793 2.34985 6.78821 3.18027 6.70897 4.09551L6.05724 10.2099H3.45493C1.54989 10.2099 0 11.7598 0 13.6648V33.9426C0 35.8477 1.54989 37.3976 3.45493 37.3976H35.9614C37.8666 37.3976 39.4165 35.8477 39.4165 33.9426V30.6532L40.57 30.7495C40.6673 30.7576 40.764 30.7617 40.86 30.7617C42.636 30.7617 44.15 29.3952 44.3004 27.594L45.9878 7.38656C46.0645 6.46683 45.7785 5.57235 45.1825 4.86771ZM3.45493 12.0068H35.9614C36.8757 12.0068 37.6196 12.7506 37.6196 13.6648V15.5125H1.79687V13.6648C1.79687 12.7506 2.54068 12.0068 3.45493 12.0068ZM1.79687 17.3094H37.6196V21.0369H1.79687V17.3094ZM35.9614 35.6007H3.45493C2.54068 35.6007 1.79687 34.8569 1.79687 33.9426V22.8338H37.6196V33.9426C37.6196 34.8569 36.8757 35.6007 35.9614 35.6007ZM44.1971 7.23697L42.5098 27.4445C42.4337 28.3556 41.6304 29.0352 40.7195 28.9589L39.4165 28.8501V13.6648C39.4165 11.7598 37.8666 10.2099 35.9614 10.2099H7.86435L8.49676 4.27663C8.49748 4.2698 8.49811 4.26306 8.49865 4.25615C8.57474 3.34504 9.37758 2.66547 10.289 2.74183L42.6827 5.44666C43.1241 5.4835 43.5247 5.69005 43.8107 6.02822C44.0967 6.36639 44.2339 6.79557 44.1971 7.23697Z" fill="#2F4047"/>
<path d="M33.8596 25.505H25.2128C24.7166 25.505 24.3144 25.9072 24.3144 26.4034V32.0446C24.3144 32.5408 24.7166 32.9431 25.2128 32.9431H33.8596C34.3558 32.9431 34.758 32.5408 34.758 32.0446V26.4034C34.758 25.9072 34.3558 25.505 33.8596 25.505ZM32.9611 31.1462H26.1113V27.3019H32.9611V31.1462Z" fill="#2F4047"/>
</svg>
