<svg width="37" height="47" viewBox="0 0 37 47" fill="none" xmlns="http://www.w3.org/2000/svg">
<path d="M11.0003 37.8313H24.2507C24.623 37.8313 24.9246 37.5297 24.9246 37.1575C24.9246 36.7853 24.623 36.4837 24.2507 36.4837H11.0003C10.6282 36.4837 10.3265 36.7853 10.3265 37.1575C10.3265 37.5297 10.6282 37.8313 11.0003 37.8313Z" fill="#2F4047"/>
<path d="M27.155 37.8313H30.0592C30.4314 37.8313 30.733 37.5297 30.733 37.1575C30.733 36.7853 30.4314 36.4837 30.0592 36.4837H27.155C26.7828 36.4837 26.4811 36.7853 26.4811 37.1575C26.4811 37.5297 26.7828 37.8313 27.155 37.8313Z" fill="#2F4047"/>
<path d="M13.9045 39.751H11.0003C10.6282 39.751 10.3265 40.0526 10.3265 40.4248C10.3265 40.797 10.6282 41.0986 11.0003 41.0986H13.9045C14.2766 41.0986 14.5783 40.797 14.5783 40.4248C14.5783 40.0526 14.2766 39.751 13.9045 39.751Z" fill="#2F4047"/>
<path d="M30.7331 40.4248C30.7331 40.0526 30.4315 39.751 30.0592 39.751H16.8087C16.4366 39.751 16.1349 40.0526 16.1349 40.4248C16.1349 40.797 16.4366 41.0986 16.8087 41.0986H30.0591C30.4314 41.0986 30.7331 40.797 30.7331 40.4248Z" fill="#2F4047"/>
<path d="M35.8675 5.59775C36.2398 5.59775 36.5414 5.29615 36.5414 4.92392V2.85123C36.5414 1.67913 35.5878 0.725525 34.4157 0.725525H8.6404C4.26555 0.725525 0.706299 4.28469 0.706299 8.65963V27.5026C0.706299 27.8748 1.00799 28.1764 1.38013 28.1764C1.75226 28.1764 2.05396 27.8748 2.05396 27.5026V8.65963C2.05396 6.67219 2.94008 4.88888 4.33653 3.68022V32.1246C3.8706 32.4267 3.43216 32.7785 3.03011 33.1805C2.66345 33.5474 2.33777 33.9442 2.05396 34.3647V30.647C2.05396 30.2748 1.75226 29.9732 1.38013 29.9732C1.00799 29.9732 0.706299 30.2748 0.706299 30.647V38.7913C0.706299 43.1662 4.26555 46.7254 8.6404 46.7254H35.1416C35.9135 46.7254 36.5414 46.0975 36.5414 45.3257V43.8738C36.5414 43.2084 36.0749 42.6511 35.4524 42.5092V35.0728C36.0749 34.9309 36.5414 34.3739 36.5414 33.709V8.06845C36.5414 7.69623 36.2398 7.39463 35.8675 7.39463C35.4953 7.39463 35.1937 7.69623 35.1937 8.06845V30.859C35.1763 30.8584 35.1592 30.8564 35.1416 30.8564H8.6404C7.61088 30.8564 6.61182 31.0528 5.68418 31.425V2.77666C6.5739 2.32771 7.57773 2.07318 8.6404 2.07318H34.4157C34.8447 2.07318 35.1937 2.42222 35.1937 2.85123V4.92392C35.1937 5.29615 35.4953 5.59775 35.8675 5.59775ZM35.1416 32.2041C35.1704 32.2041 35.1937 32.2279 35.1937 32.2571V33.709C35.1937 33.7377 35.1704 33.7611 35.1416 33.7611H8.71407C5.95254 33.7611 3.66333 35.974 3.61104 38.6943C3.58552 40.055 4.09709 41.3398 5.0515 42.3124C6.00609 43.2851 7.2807 43.8209 8.64031 43.8209H24.2507C24.6229 43.8209 24.9245 43.5193 24.9245 43.147C24.9245 42.7748 24.6229 42.4732 24.2507 42.4732H8.6404C7.64547 42.4732 6.71253 42.0809 6.01337 41.3685C5.31438 40.6562 4.93974 39.7156 4.95842 38.72C4.9967 36.7288 6.68145 35.1088 8.71407 35.1088H34.1046V42.4733H27.3953C27.0231 42.4733 26.7215 42.7749 26.7215 43.1471C26.7215 43.5194 27.0231 43.821 27.3953 43.821H35.1416C35.1704 43.821 35.1937 43.8448 35.1937 43.874V45.3258C35.1937 45.3546 35.1704 45.378 35.1416 45.378H8.6404C5.00865 45.378 2.05396 42.4233 2.05396 38.7915C2.05396 37.0326 2.73919 35.3783 3.98326 34.1334C5.22733 32.8892 6.88126 32.2041 8.6404 32.2041H35.1416Z" fill="#2F4047"/>
<path d="M26.792 18.0532C27.1679 18.0532 27.4726 17.7485 27.4726 17.3726C27.4726 16.9967 27.1679 16.6919 26.792 16.6919C26.4161 16.6919 26.1113 16.9967 26.1113 17.3726C26.1113 17.7485 26.4161 18.0532 26.792 18.0532Z" fill="#2F4047"/>
<path d="M14.086 18.0532C14.4619 18.0532 14.7667 17.7485 14.7667 17.3726C14.7667 16.9967 14.4619 16.6919 14.086 16.6919C13.7101 16.6919 13.4054 16.9967 13.4054 17.3726C13.4054 17.7485 13.7101 18.0532 14.086 18.0532Z" fill="#2F4047"/>
<path d="M7.6038 16.465C7.6038 23.5423 13.3616 29.3002 20.4391 29.3002C27.5165 29.3002 33.2743 23.5423 33.2743 16.465C33.2743 9.38762 27.5164 3.62971 20.439 3.62971C13.3615 3.62971 7.6038 9.38753 7.6038 16.465ZM14.7599 13.7423V12.2902C14.7599 12.2615 14.7833 12.238 14.8121 12.238H26.066C26.0948 12.238 26.1183 12.2615 26.1183 12.2902V13.7423C26.1183 13.7711 26.0948 13.7945 26.066 13.7945H14.8121C14.7833 13.7945 14.7599 13.7711 14.7599 13.7423ZM24.1216 10.8903H16.7565V9.386C16.7565 9.35725 16.78 9.3338 16.8088 9.3338H24.0693C24.0981 9.3338 24.1216 9.35725 24.1216 9.386V10.8903ZM14.086 15.1422H26.792C28.0218 15.1422 29.0224 16.1428 29.0224 17.3726C29.0224 18.6024 28.0218 19.6029 26.792 19.6029C25.5622 19.6029 24.5616 18.6024 24.5616 17.3726C24.5616 17.0004 24.26 16.6987 23.8878 16.6987H16.9902C16.6181 16.6987 16.3164 17.0004 16.3164 17.3726C16.3164 18.6024 15.3158 19.6029 14.086 19.6029C12.8562 19.6029 11.8557 18.6024 11.8557 17.3726C11.8557 16.1428 12.8562 15.1422 14.086 15.1422ZM15.3044 26.7391V20.7366C16.4743 20.3115 17.362 19.293 17.6004 18.0464H23.2776C23.516 19.293 24.4036 20.3115 25.5736 20.7366V26.7391C24.0275 27.5149 22.2836 27.9526 20.4391 27.9526C18.5946 27.9526 16.8505 27.5149 15.3044 26.7391ZM31.9267 16.465C31.9267 20.3961 29.9415 23.8719 26.9213 25.9438V20.9474C28.8345 20.879 30.3701 19.3022 30.3701 17.3726C30.3701 15.6279 29.1147 14.1719 27.46 13.858C27.4631 13.8197 27.4658 13.7812 27.4658 13.7422V12.2902C27.4658 11.5183 26.8378 10.8903 26.0659 10.8903H25.4691V9.386C25.4691 8.61406 24.8411 7.98615 24.0692 7.98615H16.8087C16.0368 7.98615 15.4088 8.61406 15.4088 9.386V10.8903H14.8121C14.0401 10.8903 13.4121 11.5183 13.4121 12.2902V13.7423C13.4121 13.7813 13.4148 13.8198 13.418 13.8581C11.7633 14.1719 10.5079 15.628 10.5079 17.3727C10.5079 19.3022 12.0435 20.879 13.9567 20.9475V25.9438C10.9366 23.8719 8.95137 20.3962 8.95137 16.4651C8.95137 10.1308 14.1046 4.97755 20.439 4.97755C26.7733 4.97737 31.9267 10.1307 31.9267 16.465Z" fill="#2F4047"/>
</svg>
