<svg width="190" height="82" viewBox="0 0 190 82" fill="none" xmlns="http://www.w3.org/2000/svg">
<path d="M30.8067 55.0979C30.3156 55.0979 29.7427 54.9342 29.3334 54.6068C25.3227 51.3328 23.0309 46.4218 23.0309 41.1833C23.0309 31.6068 30.7249 23.9128 40.2195 23.9128C49.7142 23.9128 57.4082 31.6886 57.4082 41.1833C57.4082 46.3399 55.1164 51.1691 51.1875 54.525C50.2053 55.3435 48.732 55.1798 47.9135 54.1976C47.095 53.2154 47.2587 51.7421 48.2409 50.9235C51.1057 48.468 52.8246 44.9485 52.8246 41.1833C52.8246 34.226 47.1768 28.4965 40.3014 28.4965C33.4259 28.4965 27.7782 34.1442 27.7782 41.1833C27.7782 45.0303 29.4971 48.5499 32.3619 51.0054C33.3441 51.8239 33.5078 53.2972 32.6893 54.2794C32.1163 54.8524 31.4615 55.0979 30.8067 55.0979Z" fill="#DA3035"/>
<path d="M76.3156 54.6068C76.0701 54.6068 75.8245 54.6068 75.6608 54.525C74.4331 54.1157 73.7783 52.888 74.1057 51.6602C75.1697 48.3043 75.6608 44.7848 75.6608 41.1833C75.6608 21.621 59.7818 5.66013 40.1376 5.66013C34.4899 5.66013 29.1697 6.96974 24.1768 9.42526C23.0309 9.99822 21.6394 9.5071 21.0664 8.36119C20.4935 7.21528 20.9846 5.82383 22.1305 5.25087C27.7782 2.3861 33.8351 0.994629 40.2195 0.994629C62.3192 0.994629 80.3263 19.0018 80.3263 41.1015C80.3263 45.1121 79.7534 49.1229 78.5256 52.888C78.2801 53.952 77.3797 54.6068 76.3156 54.6068Z" fill="#DA3035"/>
<path d="M40.1377 81.2902C29.9064 81.2902 20.248 77.4432 12.7177 70.4859C4.86005 63.2012 0.358259 53.2154 0.0308564 42.4929C-0.132845 38.4823 0.358244 34.4716 1.4223 30.6246C1.74971 29.3968 3.05932 28.6602 4.28708 28.9876C5.51484 29.315 6.25149 30.6246 5.92409 31.8523C5.02373 35.2901 4.61448 38.8096 4.69633 42.3292C5.02373 51.8239 8.95257 60.5819 15.9099 67.0481C22.8672 73.5143 31.8708 76.9521 41.3654 76.6247C47.0131 76.461 52.3334 74.9877 57.1626 72.2866C58.3085 71.7136 59.7 72.1229 60.2729 73.1869C60.8459 74.251 60.4367 75.7243 59.3726 76.2973C53.8067 79.3257 47.8316 80.9627 41.4473 81.2083C41.038 81.2902 40.6288 81.2902 40.1377 81.2902Z" fill="#DA3035"/>
<path d="M40.2195 69.9129C29.1696 69.9129 19.3476 63.6922 14.5184 53.7065C13.9454 52.5605 14.4365 51.1691 15.5824 50.5961C16.7284 50.0232 18.1198 50.5143 18.6928 51.6602C22.7034 60.009 30.9704 65.2474 40.2195 65.2474C53.3974 65.2474 64.1199 54.4431 64.1199 41.1014C64.1199 35.0445 61.9099 29.2331 57.8174 24.8131C56.917 23.8309 56.9989 22.4395 57.9811 21.5391C58.9633 20.6388 60.4366 20.7206 61.2551 21.7028C66.0843 27.0231 68.7854 33.8986 68.7854 41.1833C68.7854 57.0623 55.9348 69.9129 40.2195 69.9129Z" fill="#DA3035"/>
<path d="M56.5896 64.0196C55.9348 64.0196 55.1982 63.6922 54.7889 63.1193C53.9704 62.1371 54.1341 60.6638 55.1982 59.8453C62.4829 54.1157 65.8388 44.9484 63.7925 35.9449C62.401 29.7242 58.6359 24.4039 53.2337 20.9662C47.8316 17.5285 41.3654 16.3825 35.0629 17.774C29.1696 19.0836 23.9312 22.5213 20.4935 27.4324C19.7568 28.4964 18.2835 28.742 17.2195 28.0053C16.1554 27.2687 15.9098 25.7954 16.6465 24.7313C20.8209 18.8381 26.9597 14.7455 33.9988 13.1904C41.5291 11.5534 49.2231 12.863 55.6893 16.9555C62.1555 21.048 66.6573 27.4324 68.2943 34.8808C70.6679 45.6032 66.7391 56.5712 57.9811 63.4467C57.5718 63.8559 57.0807 64.0196 56.5896 64.0196Z" fill="#DA3035"/>
<path fill-rule="evenodd" clip-rule="evenodd" d="M40.2195 36.7634C42.5932 36.7634 44.5576 38.7278 44.5576 41.1015C44.5576 42.5748 43.8209 43.8844 42.675 44.7029V48.8773C42.675 50.2687 41.611 51.3328 40.2195 51.3328C38.828 51.3328 37.764 50.2687 37.764 48.8773V44.7029C36.6181 43.8844 35.8814 42.5748 35.8814 41.1015C35.8814 38.7278 37.8458 36.7634 40.2195 36.7634Z" fill="#DA3035"/>
<path d="M135.261 18.1526H143.853V55.277H135.261V18.1526Z" fill="#DA3035"/>
<path d="M152.663 18.1526H169.529C173.559 18.1526 177.113 18.9304 180.189 20.4861C183.3 22.0065 185.704 24.1632 187.401 26.9564C189.134 29.7495 190 33.0023 190 36.7148C190 40.4272 189.134 43.68 187.401 46.4732C185.704 49.2663 183.3 51.4408 180.189 52.9965C177.113 54.5168 173.559 55.277 169.529 55.277H152.663V18.1526ZM169.104 48.2233C172.817 48.2233 175.769 47.198 177.961 45.1473C180.189 43.0613 181.302 40.2504 181.302 36.7148C181.302 33.1791 180.189 30.386 177.961 28.3353C175.769 26.2492 172.817 25.2062 169.104 25.2062H161.255V48.2233H169.104Z" fill="#DA3035"/>
<path d="M125.104 51.8827V55.277H98.8517V18.1526H124.308V21.5468H102.776V34.7525H121.975V38.0937H102.776V51.8827H125.104Z" fill="#DA3035"/>
<path d="M103.032 63.3961C103.915 63.3961 104.627 63.6612 105.166 64.1916C105.714 64.7219 105.988 65.5086 105.988 66.5516V70.6353H103.92V66.8699C103.92 66.3041 103.796 65.8843 103.549 65.6103C103.301 65.3274 102.943 65.186 102.475 65.186C101.953 65.186 101.538 65.3495 101.228 65.6766C100.919 65.9948 100.764 66.4721 100.764 67.1085V70.6353H98.696V63.5021H100.672V64.3374C100.946 64.0369 101.286 63.8071 101.692 63.648C102.099 63.48 102.545 63.3961 103.032 63.3961Z" fill="#DA3035"/>
<path d="M118.442 67.0952C118.442 67.1218 118.428 67.3074 118.402 67.6521H113.006C113.103 68.0941 113.333 68.4432 113.695 68.6996C114.058 68.9559 114.508 69.0841 115.047 69.0841C115.419 69.0841 115.746 69.031 116.029 68.9249C116.32 68.81 116.59 68.6333 116.837 68.3946L117.938 69.5879C117.266 70.3569 116.285 70.7414 114.994 70.7414C114.19 70.7414 113.479 70.5867 112.86 70.2773C112.241 69.9591 111.764 69.5216 111.428 68.9647C111.092 68.4079 110.924 67.7759 110.924 67.0687C110.924 66.3704 111.088 65.7429 111.415 65.186C111.75 64.6203 112.206 64.1828 112.78 63.8734C113.364 63.5552 114.013 63.3961 114.729 63.3961C115.428 63.3961 116.06 63.5463 116.625 63.8469C117.191 64.1474 117.633 64.5805 117.951 65.1462C118.278 65.7031 118.442 66.3528 118.442 67.0952ZM114.743 64.9606C114.274 64.9606 113.881 65.0932 113.563 65.3584C113.244 65.6235 113.05 65.9859 112.979 66.4456H116.493C116.422 65.9948 116.228 65.6368 115.909 65.3716C115.591 65.0976 115.202 64.9606 114.743 64.9606Z" fill="#DA3035"/>
<path d="M127.933 70.2906C127.73 70.4409 127.478 70.5558 127.177 70.6353C126.886 70.706 126.576 70.7414 126.249 70.7414C125.401 70.7414 124.742 70.5248 124.274 70.0917C123.814 69.6586 123.584 69.0222 123.584 68.1825V65.2523H122.484V63.6612H123.584V61.9244H125.653V63.6612H127.429V65.2523H125.653V68.1559C125.653 68.4565 125.728 68.6907 125.878 68.8587C126.037 69.0178 126.258 69.0973 126.541 69.0973C126.868 69.0973 127.146 69.0089 127.376 68.8321L127.933 70.2906Z" fill="#DA3035"/>
<path d="M143.934 63.5021L141.348 70.6353H139.36L137.755 66.2069L136.098 70.6353H134.109L131.537 63.5021H133.486L135.17 68.3283L136.92 63.5021H138.67L140.367 68.3283L142.104 63.5021H143.934Z" fill="#DA3035"/>
<path d="M151.609 70.7414C150.858 70.7414 150.181 70.5867 149.58 70.2773C148.988 69.9591 148.524 69.5216 148.188 68.9647C147.852 68.4079 147.684 67.7759 147.684 67.0687C147.684 66.3616 147.852 65.7296 148.188 65.1727C148.524 64.6159 148.988 64.1828 149.58 63.8734C150.181 63.5552 150.858 63.3961 151.609 63.3961C152.36 63.3961 153.032 63.5552 153.624 63.8734C154.216 64.1828 154.68 64.6159 155.016 65.1727C155.352 65.7296 155.52 66.3616 155.52 67.0687C155.52 67.7759 155.352 68.4079 155.016 68.9647C154.68 69.5216 154.216 69.9591 153.624 70.2773C153.032 70.5867 152.36 70.7414 151.609 70.7414ZM151.609 69.0443C152.139 69.0443 152.572 68.8675 152.908 68.5139C153.253 68.1515 153.425 67.6698 153.425 67.0687C153.425 66.4677 153.253 65.9904 152.908 65.6368C152.572 65.2744 152.139 65.0932 151.609 65.0932C151.079 65.0932 150.641 65.2744 150.296 65.6368C149.952 65.9904 149.779 66.4677 149.779 67.0687C149.779 67.6698 149.952 68.1515 150.296 68.5139C150.641 68.8675 151.079 69.0443 151.609 69.0443Z" fill="#DA3035"/>
<path d="M162.392 64.4435C162.639 64.0988 162.971 63.838 163.386 63.6612C163.811 63.4845 164.297 63.3961 164.845 63.3961V65.3053C164.615 65.2876 164.46 65.2788 164.381 65.2788C163.788 65.2788 163.324 65.4467 162.988 65.7826C162.653 66.1097 162.485 66.6047 162.485 67.2676V70.6353H160.416V63.5021H162.392V64.4435Z" fill="#DA3035"/>
<path d="M172.651 67.8377L171.656 68.8189V70.6353H169.588V60.7974H171.656V66.366L174.679 63.5021H177.146L174.176 66.5251L177.411 70.6353H174.905L172.651 67.8377Z" fill="#DA3035"/>
</svg>
