<svg width="140" height="60" viewBox="0 0 140 60" fill="none" xmlns="http://www.w3.org/2000/svg">
<path d="M22.5245 40.2037C22.1655 40.2037 21.7466 40.084 21.4473 39.8446C18.5149 37.4508 16.8392 33.8601 16.8392 30.0299C16.8392 23.028 22.4647 17.4025 29.4068 17.4025C36.3489 17.4025 41.9744 23.0878 41.9744 30.0299C41.9744 33.8002 40.2987 37.3311 37.4261 39.7848C36.708 40.3832 35.6308 40.2635 35.0323 39.5454C34.4339 38.8272 34.5535 37.75 35.2717 37.1516C37.3663 35.3562 38.6231 32.7828 38.6231 30.0299C38.6231 24.943 34.4937 20.7538 29.4667 20.7538C24.4396 20.7538 20.3103 24.8832 20.3103 30.0299C20.3103 32.8427 21.567 35.416 23.6616 37.2114C24.3798 37.8099 24.4995 38.8871 23.901 39.6052C23.4821 40.0242 23.0033 40.2037 22.5245 40.2037Z" fill="#DA3035"/>
<path d="M55.7987 39.8446C55.6192 39.8446 55.4397 39.8446 55.32 39.7848C54.4223 39.4856 53.9435 38.5879 54.1829 37.6902C54.9609 35.2365 55.32 32.6631 55.32 30.0299C55.32 15.7268 43.7099 4.05689 29.3469 4.05689C25.2176 4.05689 21.3276 5.01443 17.677 6.8098C16.8392 7.22872 15.8218 6.86963 15.4029 6.03179C14.9839 5.19395 15.343 4.17658 16.1809 3.75766C20.3102 1.66306 24.7388 0.645678 29.4068 0.645678C45.5651 0.645678 58.7312 13.8117 58.7312 29.9701C58.7312 32.9025 58.3123 35.835 57.4146 38.5879C57.235 39.3659 56.5767 39.8446 55.7987 39.8446Z" fill="#DA3035"/>
<path d="M29.347 59.3543C21.8662 59.3543 14.8045 56.5416 9.29865 51.4547C3.55346 46.1284 0.261944 38.8272 0.0225609 30.9875C-0.0971305 28.055 0.261933 25.1226 1.03993 22.3098C1.27931 21.4121 2.23684 20.8735 3.13453 21.1129C4.03221 21.3523 4.57082 22.3098 4.33144 23.2075C3.67314 25.721 3.37391 28.2944 3.43376 30.8678C3.67314 37.8099 6.54574 44.2134 11.6326 48.9412C16.7195 53.669 23.3025 56.1825 30.2446 55.9431C34.374 55.8234 38.264 54.7462 41.7949 52.7713C42.6327 52.3524 43.6501 52.6516 44.069 53.4296C44.4879 54.2076 44.1887 55.2848 43.4107 55.7037C39.3412 57.918 34.9724 59.1149 30.3045 59.2945C30.0052 59.3543 29.706 59.3543 29.347 59.3543Z" fill="#DA3035"/>
<path d="M29.4068 51.0357C21.3276 51.0357 14.1461 46.4875 10.6152 39.1863C10.1963 38.3485 10.5554 37.3311 11.3932 36.9122C12.2311 36.4932 13.2484 36.8523 13.6673 37.6902C16.5998 43.7944 22.6442 47.6245 29.4068 47.6245C39.0419 47.6245 46.8817 39.7249 46.8817 29.97C46.8817 25.5415 45.2659 21.2924 42.2736 18.0608C41.6153 17.3426 41.6751 16.3252 42.3933 15.6669C43.1114 15.0086 44.1887 15.0685 44.7871 15.7866C48.318 19.6766 50.2929 24.7036 50.2929 30.0299C50.2929 41.64 40.8971 51.0357 29.4068 51.0357Z" fill="#DA3035"/>
<path d="M41.3759 46.7269C40.8971 46.7269 40.3585 46.4875 40.0593 46.0686C39.4608 45.3504 39.5805 44.2732 40.3585 43.6747C45.6848 39.4855 48.1385 32.7828 46.6423 26.1998C45.625 21.6515 42.8721 17.7615 38.9222 15.248C34.9724 12.7345 30.2446 11.8967 25.6365 12.914C21.3276 13.8716 17.4975 16.3851 14.984 19.9758C14.4453 20.7538 13.3681 20.9334 12.5901 20.3947C11.8121 19.8561 11.6326 18.7789 12.1712 18.0009C15.2233 13.692 19.7118 10.6998 24.8585 9.56268C30.3643 8.36577 35.9898 9.32329 40.7176 12.3156C45.4454 15.3079 48.7369 19.9758 49.9339 25.4218C51.6694 33.2616 48.7968 41.2809 42.3933 46.3079C42.0941 46.6072 41.735 46.7269 41.3759 46.7269Z" fill="#DA3035"/>
<path fill-rule="evenodd" clip-rule="evenodd" d="M29.4068 26.7983C31.1423 26.7983 32.5786 28.2346 32.5786 29.9701C32.5786 31.0473 32.04 32.0048 31.2021 32.6033V35.6554C31.2021 36.6728 30.4241 37.4508 29.4068 37.4508C28.3894 37.4508 27.6114 36.6728 27.6114 35.6554V32.6033C26.7736 32.0048 26.235 31.0473 26.235 29.9701C26.235 28.2346 27.6712 26.7983 29.4068 26.7983Z" fill="#DA3035"/>
<path d="M99.33 10.4636H105.713V38.0465H99.33V10.4636Z" fill="#DA3035"/>
<path d="M112.259 10.4636H124.79C127.785 10.4636 130.425 11.0416 132.71 12.1974C135.022 13.327 136.808 14.9294 138.069 17.0047C139.356 19.08 140 21.4968 140 24.2551C140 27.0134 139.356 29.4302 138.069 31.5054C136.808 33.5807 135.022 35.1963 132.71 36.3521C130.425 37.4817 127.785 38.0465 124.79 38.0465H112.259V10.4636ZM124.475 32.8058C127.233 32.8058 129.427 32.044 131.055 30.5203C132.71 28.9704 133.538 26.882 133.538 24.2551C133.538 21.6281 132.71 19.5529 131.055 18.0292C129.427 16.4793 127.233 15.7044 124.475 15.7044H118.643V32.8058H124.475Z" fill="#DA3035"/>
<path d="M91.7823 35.5247V38.0465H72.2773V10.4636H91.1912V12.9855H75.1932V22.7971H89.4575V25.2796H75.1932V35.5247H91.7823Z" fill="#2F4047"/>
<path d="M75.3836 44.0789C76.0403 44.0789 76.569 44.2759 76.9696 44.67C77.3768 45.064 77.5804 45.6485 77.5804 46.4235V49.4576H76.0436V46.6599C76.0436 46.2396 75.9517 45.9276 75.7678 45.724C75.5839 45.5139 75.3179 45.4088 74.9699 45.4088C74.5824 45.4088 74.2737 45.5303 74.0439 45.7733C73.814 46.0097 73.6991 46.3644 73.6991 46.8372V49.4576H72.1623V44.1577H73.6301V44.7783C73.8337 44.555 74.0866 44.3843 74.3887 44.2661C74.6908 44.1413 75.0224 44.0789 75.3836 44.0789Z" fill="#2F4047"/>
<path d="M86.8331 46.8273C86.8331 46.8471 86.8233 46.985 86.8036 47.2411H82.7942C82.8664 47.5695 83.0372 47.8289 83.3065 48.0193C83.5757 48.2098 83.9107 48.305 84.3113 48.305C84.5871 48.305 84.8301 48.2656 85.0402 48.1868C85.257 48.1014 85.4573 47.9701 85.6411 47.7928L86.4588 48.6793C85.9597 49.2507 85.2307 49.5364 84.2719 49.5364C83.6742 49.5364 83.1456 49.4215 82.6858 49.1916C82.2261 48.9552 81.8715 48.6301 81.6219 48.2163C81.3724 47.8026 81.2476 47.333 81.2476 46.8076C81.2476 46.2888 81.3691 45.8225 81.6121 45.4088C81.8616 44.9885 82.1999 44.6634 82.6267 44.4335C83.0602 44.1971 83.5429 44.0789 84.0748 44.0789C84.5937 44.0789 85.0632 44.1906 85.4835 44.4138C85.9038 44.6371 86.2322 44.9589 86.4686 45.3792C86.7116 45.793 86.8331 46.2757 86.8331 46.8273ZM84.0847 45.2413C83.7366 45.2413 83.4444 45.3398 83.2079 45.5369C82.9715 45.7339 82.827 46.0031 82.7745 46.3446H85.385C85.3325 46.0097 85.188 45.7437 84.9516 45.5467C84.7152 45.3431 84.4262 45.2413 84.0847 45.2413Z" fill="#2F4047"/>
<path d="M93.8851 49.2014C93.734 49.3131 93.5469 49.3985 93.3236 49.4576C93.1068 49.5101 92.877 49.5364 92.634 49.5364C92.0035 49.5364 91.5143 49.3755 91.1662 49.0537C90.8247 48.7319 90.6539 48.259 90.6539 47.6351V45.4581H89.8363V44.2759H90.6539V42.9854H92.1907V44.2759H93.5107V45.4581H92.1907V47.6154C92.1907 47.8387 92.2465 48.0128 92.3582 48.1375C92.4764 48.2557 92.6406 48.3149 92.8507 48.3149C93.0937 48.3149 93.3006 48.2492 93.4713 48.1178L93.8851 49.2014Z" fill="#2F4047"/>
<path d="M105.773 44.1577L103.852 49.4576H102.375L101.183 46.1673L99.9514 49.4576H98.4737L96.5626 44.1577H98.0107L99.2618 47.7435L100.562 44.1577H101.862L103.123 47.7435L104.414 44.1577H105.773Z" fill="#2F4047"/>
<path d="M111.476 49.5364C110.918 49.5364 110.415 49.4215 109.969 49.1916C109.529 48.9552 109.184 48.6301 108.934 48.2163C108.685 47.8026 108.56 47.333 108.56 46.8076C108.56 46.2823 108.685 45.8127 108.934 45.3989C109.184 44.9852 109.529 44.6634 109.969 44.4335C110.415 44.1971 110.918 44.0789 111.476 44.0789C112.034 44.0789 112.533 44.1971 112.973 44.4335C113.413 44.6634 113.758 44.9852 114.008 45.3989C114.257 45.8127 114.382 46.2823 114.382 46.8076C114.382 47.333 114.257 47.8026 114.008 48.2163C113.758 48.6301 113.413 48.9552 112.973 49.1916C112.533 49.4215 112.034 49.5364 111.476 49.5364ZM111.476 48.2755C111.87 48.2755 112.192 48.1441 112.441 47.8814C112.697 47.6121 112.825 47.2542 112.825 46.8076C112.825 46.3611 112.697 46.0064 112.441 45.7437C112.192 45.4745 111.87 45.3398 111.476 45.3398C111.082 45.3398 110.757 45.4745 110.501 45.7437C110.244 46.0064 110.116 46.3611 110.116 46.8076C110.116 47.2542 110.244 47.6121 110.501 47.8814C110.757 48.1441 111.082 48.2755 111.476 48.2755Z" fill="#2F4047"/>
<path d="M119.487 44.8571C119.671 44.601 119.918 44.4073 120.226 44.2759C120.542 44.1446 120.903 44.0789 121.31 44.0789V45.4975C121.139 45.4843 121.024 45.4778 120.965 45.4778C120.525 45.4778 120.18 45.6025 119.931 45.8521C119.681 46.0951 119.556 46.4629 119.556 46.9554V49.4576H118.02V44.1577H119.487V44.8571Z" fill="#2F4047"/>
<path d="M127.11 47.379L126.371 48.108V49.4576H124.834V42.1481H126.371V46.2855L128.617 44.1577H130.449L128.243 46.4038L130.646 49.4576H128.784L127.11 47.379Z" fill="#2F4047"/>
</svg>
